PathFileType	4	(X/Y/Z)	Patient4_TMGait_0pt3_02_right_24.trc.trc
DataRate	CameraRate	NumFrames	NumMarkers	Units	OrigDataRate	OrigDataStartFrame	OrigNumFrames
51.282051282051	51.282051282051	5	33	mm	51.282051282051	89	       141
Frame#	Time	Sacral			L.Shoulder			Chest			R.Shoulder			Neck			R.ASIS			L.ASIS			R.Thigh.Superior			R.Thigh.Lateral			R.Thigh.Inferior			R.Patella			L.Thigh.Superior			L.Thigh.Lateral			L.Thigh.Inferior			L.Patella			L.Shank.Superior			L.Shank.Lateral			L.Shank.Inferior			R.Shank.Superior			R.Shank.Lateral			R.Shank.Inferior			R.Heel			R.Midfoot.Superior			R.Midfoot.Lateral			R.Toe			L.Heel			L.Midfoot.Lateral			L.Midfoot.Superior			L.Toe			L.Elbow			L.Wrist			R.Elbow			R.Wrist			
		X1	Y1	Z1	X2	Y2	Z2	X3	Y3	Z3	X4	Y4	Z4	X5	Y5	Z5	X6	Y6	Z6	X7	Y7	Z7	X8	Y8	Z8	X9	Y9	Z9	X10	Y10	Z10	X11	Y11	Z11	X12	Y12	Z12	X13	Y13	Z13	X14	Y14	Z14	X15	Y15	Z15	X16	Y16	Z16	X17	Y17	Z17	X18	Y18	Z18	X19	Y19	Z19	X20	Y20	Z20	X21	Y21	Z21	X22	Y22	Z22	X23	Y23	Z23	X24	Y24	Z24	X25	Y25	Z25	X26	Y26	Z26	X27	Y27	Z27	X28	Y28	Z28	X29	Y29	Z29	X30	Y30	Z30	X31	Y31	Z31	X32	Y32	Z32	X33	Y33	Z33	

89	47.816000000000	766.384612344103	1007.632997946535	491.297926156366	902.138167541129	1415.252433825428	255.197613334062	1037.749411098968	1356.222609245631	394.787552269118	996.812817127192	1446.076039690568	574.740470376697	921.365516703236	1490.667330008972	404.938710152024	1007.918394623401	936.449155386732	571.905877122603	954.319385043390	955.722313140988	302.146457868865	1007.868352224965	721.879949576768	547.932567488306	915.028054565658	623.438159689877	618.975289938893	973.271755613097	558.137387651318	535.426067772280	955.043155014235	461.152259461276	549.876406992310	1027.065642825494	762.915141825087	336.527277297711	953.292472391189	635.442234994578	277.403868678402	1050.316618182797	570.333823072608	336.929060815924	1058.664603703657	500.831993548065	344.054717488392	1038.418221374385	426.353578991393	336.131691396817	957.485357480346	304.738230176643	286.551900539154	1022.105960038658	198.236126731783	355.267585489625	893.222716540215	388.112015793445	561.385618863870	791.329657323488	319.219770867275	629.715565625335	795.092430549633	213.068818289886	573.088196984973	610.977974367980	90.624939678482	554.129073864603	789.979607671251	104.516819400501	590.071039639346	690.390914464523	65.569837332290	628.492976073575	892.670287231706	36.158416604264	621.396763534652	906.369855162306	37.610652883100	396.167069800708	982.020366030054	35.095344729802	316.421803662313	1062.371457745744	100.303325523229	343.820239230468	1192.029864845548	53.616507529997	319.313394438008	785.477791984314	1074.219846864489	185.840334144923	773.084128741989	815.280252657765	222.029992519263	1199.610863869230	1178.396672356416	684.761362392989	1444.700274614286	1223.832032466974	620.680745418124	
90	47.835500000000	766.365795159944	1008.027436544434	486.719750048658	902.991265460483	1415.430264897993	250.913423680600	1037.675737651731	1357.166597193604	391.661266588663	995.258734583908	1447.546818752673	571.074318165152	921.044602455967	1491.412719680841	400.501062203864	1007.638231546463	937.432309699562	568.887638358534	955.635539622652	956.468656283430	298.812717932027	1010.699961532552	723.369931615381	545.078822122014	919.512656930283	623.805623406630	616.088271446963	979.425235927518	558.892377869775	533.057569592928	962.061552231226	460.409142903696	548.768224389757	1027.049816676416	762.209430869412	333.354856477155	952.185926173980	635.225616222016	275.132967238736	1048.318513180591	569.501954793153	335.305363568268	1056.091610373330	500.086004584495	342.979061916057	1035.433147351418	425.698450003783	335.218955749283	953.949155821090	304.430265564606	285.717482647061	1017.361215557876	197.821242666668	355.194710295409	898.102729323677	388.474177852171	560.088335782689	794.078336513883	322.549747761891	627.930105174685	795.737442516391	215.765724817241	572.316123481949	608.784985086245	98.890940370518	553.315399302160	787.805240352931	105.835398311725	590.038990834775	686.803877235838	70.892438252652	627.951930142748	887.004026190487	35.828809330593	621.354331800713	900.503916362542	37.593403313227	396.208046057647	976.119904042292	35.090789222595	316.449185419280	1056.574055403625	100.008123810432	343.968655592570	1186.169196117436	53.314026337042	319.324308081010	794.737399828396	1071.611974431856	178.251632608787	787.527859675891	812.234721301170	211.979681710329	1192.926444711711	1174.836119873477	682.475220011193	1439.428366509017	1214.650028563037	619.913564681343	
91	47.855000000000	766.238683823227	1008.251702776604	482.087913684478	903.744329383843	1415.706893736110	246.930936156470	1037.431381556655	1358.101394805874	388.827546654181	993.480375250456	1448.819640630954	567.767604626575	920.589460146903	1492.107594228160	396.424723208940	1007.241750930295	938.301667979229	565.809228433550	956.885231632434	957.194148370770	295.433486010273	1013.910056643701	724.954809864699	542.144077811777	924.673914789715	624.132604731595	613.174619238891	986.421903315190	559.749711973505	530.644096130340	970.074881236558	459.744697440686	547.648639542195	1026.995405385256	761.504385857189	330.289703259712	951.147901079583	634.973572486235	272.886380386498	1046.322550380962	568.652850265511	333.774034664989	1053.503915578629	499.306469922329	341.985439282233	1032.460678119637	425.018793115663	334.373206077613	950.499211072442	304.081812137730	284.889552627413	1012.671996410139	197.381468473435	355.155072584020	903.961579678479	388.889941329079	558.763112372238	797.727531983893	326.190564022599	626.025678829560	797.169481215888	218.801540917630	571.460760957336	607.398767884037	108.169542235320	552.199355649764	786.082536852723	107.438410500115	589.923361128467	683.661654478884	77.034805971728	627.212343928134	881.254171280511	35.457639178026	621.327556925795	894.639913339884	37.585723740444	396.252823014096	970.224731887295	35.084785509247	316.486377066872	1050.823310227961	99.645705835288	344.146390283410	1180.331520539842	52.893990001644	319.352877188957	804.843400047835	1069.103516504934	170.815789346813	803.275437923434	809.427070643716	202.059513828115	1185.084029937206	1170.504141016995	680.609242235298	1433.070056827485	1203.637931704316	619.848002302998	
92	47.874500000000	766.010501941297	1008.285820766657	477.393665120412	904.417637846557	1416.085468617657	243.264061950499	1037.031936045369	1359.000036750590	386.293245873359	991.490157155844	1449.837037282696	564.838002584449	920.013051969605	1492.729094872150	392.743597762119	1006.723038233603	939.034896717092	562.667235348971	958.074293431750	957.869799817383	292.009249900347	1017.466300709933	726.632819027176	539.136716326654	930.451685822185	624.453149721502	610.245523546371	994.173513672681	560.741946412485	528.183538984211	978.985674527149	459.222597089343	546.475983480999	1026.953461684576	760.821563074156	327.335411182988	950.274374951052	634.683647429261	270.640889216030	1044.460750511714	567.807059838342	332.292238135201	1051.059474835368	498.492068375331	341.016099629567	1029.615729505690	424.300243139717	333.555201261837	947.196701493022	303.707573178567	284.037109101388	1008.065248050685	196.912946643589	355.122843314822	910.731046220244	389.401226056949	557.372474835673	802.245919796599	330.173374524231	623.979402352712	799.382451578211	222.225666636153	570.492108908861	606.897949455340	118.487718494724	550.716300721239	784.829830735079	109.436411532961	589.685142707508	681.025587530890	84.081585554227	626.218547921120	875.453498728253	35.030891401150	621.320037125014	888.780654797124	37.587344291802	396.294347820787	964.340011985824	35.081259487708	316.527447087454	1045.111983106771	99.242435577624	344.343537538425	1174.518136021894	52.394277150767	319.398785461838	815.714944853834	1066.801430713924	163.600761980844	820.314660469487	806.998407204861	192.375274564408	1176.094472737498	1165.450618691393	679.142838590365	1425.565727243459	1190.645768321016	620.482413956381	
93	47.894000000000	765.684382804639	1008.105231111298	472.638524912820	905.044964316105	1416.553489693967	239.918116421439	1036.498832290610	1359.823891971101	384.066740776841	989.296858388580	1450.541043017771	562.296448538046	919.335569588426	1493.246697666884	389.483039537441	1006.074272843176	939.609713415209	559.470605824741	959.202642120006	958.457731539514	288.551415418506	1021.327931832498	728.402513424822	536.060900808155	936.777037353085	624.796498368439	607.304885095037	1002.575820780031	561.898909850739	525.665203150962	988.678262433277	458.895632850479	545.199993099079	1026.972725961462	760.167732388553	324.475064466496	949.641983950952	634.340205607839	268.379170416649	1042.859746405216	566.973108504556	330.808475324121	1048.915479099987	497.633476366118	340.006025880552	1027.009196294179	423.520383416498	332.722159266985	944.090710237137	303.317282786939	283.135649230805	1003.561162199767	196.407937959678	355.068756925329	918.320475556570	390.043060966932	555.872888539228	807.582343194719	334.510066556298	621.766674067605	802.348433692128	226.067176143778	569.376633055609	607.334828670304	129.802917930965	548.811237229285	784.066762851743	111.936009229300	589.286895344509	678.958089089902	92.065280292536	624.918507817910	869.674816012934	34.549667546928	621.329504430556	882.927782664211	37.598958450194	396.327001238314	958.468624522576	35.082582712635	316.566940204396	1039.432449400859	98.823833950722	344.547621317584	1168.729505149412	51.846371334810	319.458241676100	827.255778617465	1064.798959441282	156.659957126225	838.605063102175	805.083933897191	183.031105911401	1165.989095858225	1159.747335421868	678.048199389552	1416.829191863043	1175.565790555792	621.798573401291	
